<svg width="96" height="32" viewBox="0 0 96 32" fill="none" xmlns="http://www.w3.org/2000/svg">
  <rect width="96" height="32" rx="10" fill="#0F172A"/>
  <circle cx="18" cy="16" r="8" fill="#22C55E"/>
  <path d="M18 11V21" stroke="#0F172A" stroke-width="2.4" stroke-linecap="round"/>
  <path d="M14 16H22" stroke="#0F172A" stroke-width="2.4" stroke-linecap="round"/>
  <path d="M31.5 11.5H34.7V20.5H31.5V11.5ZM31.3 8.9C31.3 7.95 32.05 7.2 33.1 7.2C34.15 7.2 34.9 7.95 34.9 8.9C34.9 9.85 34.15 10.6 33.1 10.6C32.05 10.6 31.3 9.85 31.3 8.9Z" fill="white"/>
  <path d="M38.1 11.5H41.3V20.5H38.1V11.5ZM37.9 8.9C37.9 7.95 38.65 7.2 39.7 7.2C40.75 7.2 41.5 7.95 41.5 8.9C41.5 9.85 40.75 10.6 39.7 10.6C38.65 10.6 37.9 9.85 37.9 8.9Z" fill="white"/>
  <path d="M45.2 16C45.2 13.15 47.32 11.2 50.3 11.2C51.75 11.2 53.04 11.7 53.96 12.67L52 14.5C51.51 13.97 50.95 13.72 50.47 13.72C49.08 13.72 48.24 14.68 48.24 16C48.24 17.32 49.08 18.28 50.47 18.28C50.95 18.28 51.51 18.03 52 17.5L53.96 19.33C53.04 20.3 51.75 20.8 50.3 20.8C47.32 20.8 45.2 18.85 45.2 16Z" fill="white"/>
  <path d="M55.55 16C55.55 13.27 57.67 11.2 60.52 11.2C63.37 11.2 65.49 13.27 65.49 16C65.49 18.73 63.37 20.8 60.52 20.8C57.67 20.8 55.55 18.73 55.55 16ZM62.29 16C62.29 14.7 61.47 13.72 60.52 13.72C59.57 13.72 58.75 14.7 58.75 16C58.75 17.3 59.57 18.28 60.52 18.28C61.47 18.28 62.29 17.3 62.29 16Z" fill="white"/>
  <path d="M68.08 11.5H71.12V12.45C71.82 11.67 72.75 11.2 73.95 11.2C76.21 11.2 77.76 12.5 77.76 15.43V20.5H74.56V15.95C74.56 14.7 74.03 14.18 73.14 14.18C72.15 14.18 71.28 14.8 71.28 16.35V20.5H68.08V11.5Z" fill="white"/>
</svg>
