<svg width="96" height="32" viewBox="0 0 96 32" fill="none" xmlns="http://www.w3.org/2000/svg">
  <rect width="96" height="32" rx="10" fill="#052E16"/>
  <path d="M10 9H18.6C21.95 9 24 10.7 24 13.88C24 17.07 21.95 18.77 18.6 18.77H13.36V23H10V9ZM18.4 16.03C19.93 16.03 20.77 15.31 20.77 13.88C20.77 12.47 19.93 11.74 18.4 11.74H13.36V16.03H18.4Z" fill="white"/>
  <path d="M35.36 16.86V23H32.36V21.66C31.8 22.64 30.73 23.16 29.19 23.16C26.66 23.16 25.27 21.75 25.27 20C25.27 18.18 26.56 16.92 29.82 16.92H32.16C32.1 15.66 31.26 14.95 29.56 14.95C28.4 14.95 27.14 15.34 26.32 15.97L25.18 13.65C26.44 12.82 28.26 12.41 29.94 12.41C33.28 12.41 35.36 13.96 35.36 16.86ZM32.16 19.68V18.58H30.14C28.76 18.58 28.34 19.09 28.34 19.77C28.34 20.52 28.98 21.02 30.04 21.02C31.03 21.02 31.88 20.56 32.16 19.68Z" fill="white"/>
  <path d="M48.77 12.56L44.11 23.51C43.11 26.02 41.67 26.78 39.57 26.78C38.44 26.78 37.21 26.41 36.45 25.81L37.62 23.53C38.1 23.94 38.8 24.21 39.45 24.21C40.32 24.21 40.81 23.87 41.16 23.04L41.19 22.96L36.62 12.56H39.91L42.8 19.77L45.71 12.56H48.77Z" fill="white"/>
  <path d="M58.19 12.41V15.31C57.92 15.29 57.69 15.27 57.45 15.27C55.92 15.27 54.9 16.11 54.9 18.01V23H51.7V12.56H54.76V13.94C55.49 12.93 56.71 12.41 58.19 12.41Z" fill="white"/>
  <path d="M66.65 22.49C66.03 22.93 65.1 23.16 64.1 23.16C61.52 23.16 60.01 21.84 60.01 19.24V15.27H58.52V12.81H60.01V10.46H63.21V12.81H65.61V15.27H63.21V19.2C63.21 20.03 63.66 20.48 64.42 20.48C64.84 20.48 65.26 20.35 65.59 20.11L66.65 22.49Z" fill="white"/>
  <circle cx="82" cy="16" r="8" fill="#22C55E"/>
  <path d="M78.5 16.1L80.9 18.5L85.5 13.9" stroke="#052E16" stroke-width="2.4" stroke-linecap="round" stroke-linejoin="round"/>
</svg>
