<svg width="96" height="32" viewBox="0 0 96 32" fill="none" xmlns="http://www.w3.org/2000/svg">
  <rect width="96" height="32" rx="10" fill="#1E1B4B"/>
  <rect x="8" y="8" width="18" height="16" rx="8" fill="#635BFF"/>
  <path d="M16.9 11.5C18.48 11.5 19.66 11.95 20.71 12.63L19.83 14.8C18.89 14.22 17.96 13.9 16.9 13.9C16.12 13.9 15.72 14.16 15.72 14.57C15.72 15.86 20.98 14.86 20.98 18.52C20.98 20.14 19.57 21.3 17.46 21.3C15.96 21.3 14.47 20.88 13.36 20.12L14.26 17.93C15.26 18.58 16.4 18.97 17.47 18.97C18.38 18.97 18.79 18.68 18.79 18.19C18.79 16.84 13.56 17.9 13.56 14.22C13.56 12.68 14.9 11.5 16.9 11.5Z" fill="white"/>
  <path d="M31.8 12H35.52V21H31.8V12Z" fill="white"/>
  <path d="M31.62 9.45C31.62 8.5 32.34 7.8 33.66 7.8C34.98 7.8 35.7 8.5 35.7 9.45C35.7 10.43 34.98 11.13 33.66 11.13C32.34 11.13 31.62 10.43 31.62 9.45Z" fill="white"/>
  <path d="M40.8 13.96V16.95C40.8 18 41.35 18.37 42.14 18.37C42.57 18.37 42.98 18.25 43.35 18.03L44.11 20.27C43.45 20.66 42.49 20.89 41.41 20.89C39.12 20.89 37.6 19.71 37.6 17.34V13.96H36.15V11.56H37.6V8.94H40.8V11.56H43.08V13.96H40.8Z" fill="white"/>
  <path d="M53.05 17.27H46.82C47.06 18.19 47.84 18.71 49.02 18.71C49.85 18.71 50.42 18.48 51.05 18L52.74 19.8C51.91 20.56 50.69 20.95 48.93 20.95C45.73 20.95 43.66 18.95 43.66 16.5C43.66 14.02 45.76 12.05 48.6 12.05C51.2 12.05 53.17 13.71 53.17 16.53C53.17 16.75 53.11 17.07 53.05 17.27ZM46.78 15.63H50.11C49.95 14.66 49.39 14.04 48.44 14.04C47.47 14.04 46.93 14.65 46.78 15.63Z" fill="white"/>
  <path d="M55.06 12H58.1V13.08C58.8 12.27 59.83 11.85 61.17 11.85V14.63C60.89 14.6 60.66 14.58 60.4 14.58C59.08 14.58 58.26 15.27 58.26 16.92V21H55.06V12Z" fill="white"/>
  <path d="M62.16 12H65.36V21H62.16V12Z" fill="white"/>
  <path d="M61.98 9.45C61.98 8.5 62.7 7.8 64.02 7.8C65.34 7.8 66.06 8.5 66.06 9.45C66.06 10.43 65.34 11.13 64.02 11.13C62.7 11.13 61.98 10.43 61.98 9.45Z" fill="white"/>
  <path d="M77.03 15.86V21H74.04V19.8C73.58 20.68 72.68 21.15 71.38 21.15C69.21 21.15 68.06 19.94 68.06 18.45C68.06 16.86 69.24 15.75 72.02 15.75H73.81C73.76 14.83 73.15 14.31 71.85 14.31C70.96 14.31 69.97 14.61 69.33 15.11L68.25 12.91C69.34 12.2 70.95 11.85 72.34 11.85C75.2 11.85 77.03 13.11 77.03 15.86ZM73.81 18.15V17.34H72.45C71.43 17.34 71.04 17.7 71.04 18.25C71.04 18.81 71.51 19.19 72.28 19.19C72.99 19.19 73.61 18.86 73.81 18.15Z" fill="white"/>
</svg>
